Normalized EMG Linear Envelopes
nRows=65
nColumns=17

endheader
time	        VM	        VL	        RF	       GRA	        TA	   ADDLONG	   SEMIMEM	      BFLH	        GM	        GL	       TFL	   GLUTMAX	   GLUTMED	      PIRI	    OBTINT	        QF	
1.95	  0.050063	  0.049441	  0.155699	  0.111192	  0.267346	  0.152469	  0.094821	  0.058913	  0.013150	  0.024525	  0.040490	  0.109911	  0.118110	  0.268381	  0.410989	  0.346717	
1.9505	  0.050561	  0.049807	  0.153549	  0.111772	  0.264657	  0.152703	  0.097197	  0.060211	  0.013097	  0.024726	  0.039799	  0.110541	  0.118841	  0.271311	  0.414828	  0.350729	
1.951	  0.051060	  0.050180	  0.151412	  0.112377	  0.261997	  0.152944	  0.099602	  0.061527	  0.013043	  0.024926	  0.039119	  0.111189	  0.119623	  0.274236	  0.418643	  0.354821	
1.9515	  0.051561	  0.050560	  0.149290	  0.113006	  0.259368	  0.153192	  0.102038	  0.062860	  0.012988	  0.025123	  0.038450	  0.111857	  0.120456	  0.277152	  0.422434	  0.358992	
1.952	  0.052063	  0.050947	  0.147183	  0.113658	  0.256770	  0.153445	  0.104503	  0.064211	  0.012931	  0.025319	  0.037792	  0.112545	  0.121340	  0.280058	  0.426202	  0.363241	
1.9525	  0.052567	  0.051340	  0.145092	  0.114332	  0.254203	  0.153703	  0.106997	  0.065579	  0.012874	  0.025512	  0.037146	  0.113252	  0.122275	  0.282951	  0.429948	  0.367567	
1.953	  0.053071	  0.051741	  0.143018	  0.115026	  0.251668	  0.153966	  0.109521	  0.066963	  0.012815	  0.025702	  0.036511	  0.113978	  0.123260	  0.285828	  0.433674	  0.371969	
1.9535	  0.053576	  0.052148	  0.140961	  0.115741	  0.249166	  0.154232	  0.112072	  0.068365	  0.012755	  0.025890	  0.035887	  0.114725	  0.124297	  0.288687	  0.437381	  0.376447	
1.954	  0.054082	  0.052562	  0.138922	  0.116475	  0.246697	  0.154500	  0.114651	  0.069782	  0.012694	  0.026075	  0.035275	  0.115492	  0.125385	  0.291527	  0.441072	  0.380998	
1.9545	  0.054588	  0.052982	  0.136902	  0.117226	  0.244262	  0.154770	  0.117258	  0.071216	  0.012632	  0.026257	  0.034674	  0.116278	  0.126523	  0.294343	  0.444749	  0.385622	
1.955	  0.055094	  0.053409	  0.134900	  0.117995	  0.241861	  0.155042	  0.119891	  0.072665	  0.012568	  0.026436	  0.034085	  0.117085	  0.127711	  0.297134	  0.448414	  0.390317	
1.9555	  0.055600	  0.053841	  0.132919	  0.118779	  0.239495	  0.155313	  0.122550	  0.074130	  0.012503	  0.026611	  0.033507	  0.117912	  0.128950	  0.299897	  0.452069	  0.395083	
1.956	  0.056105	  0.054280	  0.130958	  0.119578	  0.237163	  0.155583	  0.125235	  0.075610	  0.012437	  0.026782	  0.032940	  0.118758	  0.130239	  0.302630	  0.455717	  0.399916	
1.9565	  0.056609	  0.054724	  0.129017	  0.120391	  0.234866	  0.155851	  0.127945	  0.077105	  0.012370	  0.026949	  0.032385	  0.119625	  0.131578	  0.305329	  0.459358	  0.404817	
1.957	  0.057113	  0.055174	  0.127098	  0.121217	  0.232604	  0.156117	  0.130678	  0.078614	  0.012301	  0.027113	  0.031841	  0.120512	  0.132966	  0.307994	  0.462997	  0.409783	
1.9575	  0.057615	  0.055630	  0.125201	  0.122053	  0.230378	  0.156378	  0.133435	  0.080136	  0.012231	  0.027271	  0.031309	  0.121418	  0.134403	  0.310621	  0.466633	  0.414812	
1.958	  0.058115	  0.056090	  0.123325	  0.122900	  0.228186	  0.156634	  0.136215	  0.081673	  0.012159	  0.027426	  0.030788	  0.122344	  0.135890	  0.313210	  0.470270	  0.419903	
1.9585	  0.058614	  0.056556	  0.121472	  0.123755	  0.226030	  0.156884	  0.139017	  0.083222	  0.012087	  0.027575	  0.030278	  0.123290	  0.137425	  0.315759	  0.473908	  0.425053	
1.959	  0.059111	  0.057027	  0.119642	  0.124619	  0.223910	  0.157126	  0.141839	  0.084785	  0.012012	  0.027719	  0.029780	  0.124256	  0.139008	  0.318266	  0.477550	  0.430261	
1.9595	  0.059606	  0.057502	  0.117835	  0.125488	  0.221824	  0.157361	  0.144682	  0.086359	  0.011937	  0.027858	  0.029292	  0.125240	  0.140638	  0.320731	  0.481196	  0.435525	
1.96	  0.060099	  0.057981	  0.116052	  0.126363	  0.219774	  0.157586	  0.147543	  0.087945	  0.011859	  0.027991	  0.028816	  0.126244	  0.142316	  0.323154	  0.484849	  0.440842	
1.9605	  0.060589	  0.058465	  0.114291	  0.127241	  0.217758	  0.157801	  0.150423	  0.089542	  0.011781	  0.028118	  0.028352	  0.127267	  0.144041	  0.325533	  0.488510	  0.446211	
1.961	  0.061077	  0.058952	  0.112555	  0.128122	  0.215778	  0.158005	  0.153320	  0.091150	  0.011700	  0.028239	  0.027898	  0.128308	  0.145812	  0.327869	  0.492180	  0.451629	
1.9615	  0.061561	  0.059443	  0.110843	  0.129004	  0.213831	  0.158197	  0.156234	  0.092768	  0.011619	  0.028354	  0.027455	  0.129368	  0.147629	  0.330162	  0.495860	  0.457094	
1.962	  0.062042	  0.059938	  0.109155	  0.129886	  0.211919	  0.158376	  0.159162	  0.094395	  0.011535	  0.028463	  0.027023	  0.130446	  0.149491	  0.332413	  0.499551	  0.462604	
1.9625	  0.062519	  0.060435	  0.107491	  0.130767	  0.210041	  0.158542	  0.162105	  0.096032	  0.011451	  0.028565	  0.026602	  0.131542	  0.151397	  0.334623	  0.503255	  0.468157	
1.963	  0.062993	  0.060935	  0.105851	  0.131645	  0.208197	  0.158692	  0.165060	  0.097677	  0.011364	  0.028659	  0.026191	  0.132655	  0.153348	  0.336793	  0.506973	  0.473750	
1.9635	  0.063463	  0.061438	  0.104235	  0.132519	  0.206386	  0.158826	  0.168027	  0.099329	  0.011276	  0.028747	  0.025791	  0.133786	  0.155342	  0.338925	  0.510704	  0.479380	
1.964	  0.063928	  0.061942	  0.102645	  0.133388	  0.204609	  0.158944	  0.171005	  0.100989	  0.011186	  0.028828	  0.025401	  0.134933	  0.157378	  0.341021	  0.514450	  0.485046	
1.9645	  0.064388	  0.062448	  0.101078	  0.134251	  0.202865	  0.159045	  0.173993	  0.102655	  0.011095	  0.028900	  0.025022	  0.136097	  0.159457	  0.343083	  0.518212	  0.490744	
1.965	  0.064843	  0.062956	  0.099536	  0.135106	  0.201154	  0.159128	  0.176989	  0.104327	  0.011002	  0.028965	  0.024653	  0.137277	  0.161576	  0.345114	  0.521989	  0.496472	
1.9655	  0.065293	  0.063465	  0.098018	  0.135952	  0.199475	  0.159192	  0.179993	  0.106005	  0.010907	  0.029023	  0.024294	  0.138473	  0.163736	  0.347114	  0.525782	  0.502225	
1.966	  0.065736	  0.063974	  0.096525	  0.136788	  0.197829	  0.159237	  0.183003	  0.107687	  0.010811	  0.029072	  0.023945	  0.139684	  0.165935	  0.349086	  0.529590	  0.508002	
1.9665	  0.066174	  0.064483	  0.095057	  0.137612	  0.196216	  0.159263	  0.186018	  0.109373	  0.010713	  0.029113	  0.023606	  0.140910	  0.168173	  0.351032	  0.533414	  0.513800	
1.967	  0.066604	  0.064992	  0.093613	  0.138423	  0.194635	  0.159267	  0.189037	  0.111062	  0.010613	  0.029146	  0.023276	  0.142150	  0.170448	  0.352954	  0.537254	  0.519614	
1.9675	  0.067028	  0.065500	  0.092193	  0.139220	  0.193086	  0.159251	  0.192059	  0.112754	  0.010511	  0.029170	  0.022956	  0.143404	  0.172761	  0.354853	  0.541108	  0.525442	
1.968	  0.067443	  0.066008	  0.090797	  0.140002	  0.191569	  0.159213	  0.195082	  0.114447	  0.010408	  0.029186	  0.022646	  0.144672	  0.175109	  0.356730	  0.544977	  0.531279	
1.9685	  0.067851	  0.066514	  0.089425	  0.140767	  0.190083	  0.159152	  0.198106	  0.116142	  0.010303	  0.029194	  0.022344	  0.145952	  0.177493	  0.358589	  0.548859	  0.537124	
1.969	  0.068250	  0.067019	  0.088077	  0.141514	  0.188628	  0.159069	  0.201128	  0.117837	  0.010196	  0.029193	  0.022052	  0.147245	  0.179912	  0.360430	  0.552755	  0.542973	
1.9695	  0.068640	  0.067521	  0.086753	  0.142243	  0.187205	  0.158964	  0.204149	  0.119532	  0.010088	  0.029184	  0.021769	  0.148549	  0.182364	  0.362254	  0.556661	  0.548821	
1.97	  0.069021	  0.068021	  0.085453	  0.142951	  0.185812	  0.158836	  0.207166	  0.121225	  0.009978	  0.029166	  0.021494	  0.149864	  0.184850	  0.364065	  0.560578	  0.554667	
1.9705	  0.069391	  0.068519	  0.084176	  0.143638	  0.184449	  0.158684	  0.210179	  0.122917	  0.009866	  0.029139	  0.021228	  0.151189	  0.187368	  0.365862	  0.564504	  0.560507	
1.971	  0.069751	  0.069013	  0.082922	  0.144304	  0.183117	  0.158508	  0.213186	  0.124606	  0.009752	  0.029105	  0.020971	  0.152524	  0.189918	  0.367648	  0.568437	  0.566339	
1.9715	  0.070100	  0.069505	  0.081692	  0.144946	  0.181815	  0.158309	  0.216187	  0.126291	  0.009637	  0.029061	  0.020722	  0.153868	  0.192498	  0.369424	  0.572377	  0.572158	
1.972	  0.070438	  0.069993	  0.080484	  0.145565	  0.180542	  0.158086	  0.219181	  0.127972	  0.009520	  0.029009	  0.020481	  0.155219	  0.195109	  0.371192	  0.576320	  0.577962	
1.9725	  0.070763	  0.070478	  0.079299	  0.146159	  0.179299	  0.157838	  0.222166	  0.129647	  0.009401	  0.028949	  0.020248	  0.156578	  0.197749	  0.372952	  0.580266	  0.583748	
1.973	  0.071077	  0.070959	  0.078136	  0.146727	  0.178086	  0.157566	  0.225141	  0.131316	  0.009281	  0.028880	  0.020023	  0.157944	  0.200419	  0.374706	  0.584211	  0.589512	
1.9735	  0.071377	  0.071435	  0.076995	  0.147270	  0.176902	  0.157270	  0.228107	  0.132979	  0.009158	  0.028802	  0.019806	  0.159315	  0.203117	  0.376454	  0.588155	  0.595252	
1.974	  0.071664	  0.071907	  0.075876	  0.147786	  0.175747	  0.156949	  0.231060	  0.134634	  0.009034	  0.028716	  0.019596	  0.160692	  0.205843	  0.378198	  0.592095	  0.600965	
1.9745	  0.071937	  0.072375	  0.074779	  0.148275	  0.174621	  0.156604	  0.234001	  0.136281	  0.008909	  0.028622	  0.019394	  0.162072	  0.208597	  0.379938	  0.596029	  0.606647	
1.975	  0.072196	  0.072837	  0.073704	  0.148736	  0.173523	  0.156234	  0.236928	  0.137918	  0.008782	  0.028519	  0.019198	  0.163456	  0.211379	  0.381675	  0.599954	  0.612296	
1.9755	  0.072440	  0.073295	  0.072650	  0.149170	  0.172453	  0.155841	  0.239840	  0.139546	  0.008653	  0.028407	  0.019010	  0.164843	  0.214187	  0.383409	  0.603867	  0.617910	
1.976	  0.072669	  0.073747	  0.071616	  0.149576	  0.171412	  0.155425	  0.242736	  0.141163	  0.008523	  0.028288	  0.018828	  0.166231	  0.217021	  0.385142	  0.607767	  0.623486	
1.9765	  0.072881	  0.074194	  0.070603	  0.149955	  0.170398	  0.154985	  0.245614	  0.142770	  0.008391	  0.028160	  0.018653	  0.167621	  0.219880	  0.386873	  0.611651	  0.629020	
1.977	  0.073077	  0.074635	  0.069611	  0.150308	  0.169412	  0.154524	  0.248475	  0.144366	  0.008258	  0.028025	  0.018484	  0.169011	  0.222765	  0.388604	  0.615516	  0.634511	
1.9775	  0.073256	  0.075071	  0.068638	  0.150634	  0.168453	  0.154040	  0.251316	  0.145951	  0.008124	  0.027881	  0.018322	  0.170401	  0.225674	  0.390333	  0.619358	  0.639957	
1.978	  0.073418	  0.075501	  0.067686	  0.150934	  0.167522	  0.153534	  0.254139	  0.147524	  0.007989	  0.027730	  0.018166	  0.171790	  0.228606	  0.392061	  0.623175	  0.645354	
1.9785	  0.073562	  0.075925	  0.066752	  0.151209	  0.166617	  0.153007	  0.256941	  0.149086	  0.007852	  0.027572	  0.018015	  0.173176	  0.231560	  0.393789	  0.626964	  0.650701	
1.979	  0.073688	  0.076343	  0.065838	  0.151460	  0.165740	  0.152460	  0.259722	  0.150638	  0.007714	  0.027407	  0.017871	  0.174560	  0.234536	  0.395516	  0.630721	  0.655995	
1.9795	  0.073796	  0.076755	  0.064942	  0.151687	  0.164889	  0.151893	  0.262482	  0.152178	  0.007576	  0.027235	  0.017732	  0.175939	  0.237533	  0.397242	  0.634443	  0.661233	
1.98	  0.073885	  0.077161	  0.064065	  0.151892	  0.164064	  0.151306	  0.265220	  0.153707	  0.007436	  0.027056	  0.017598	  0.177315	  0.240549	  0.398967	  0.638126	  0.666413	
1.9805	  0.073956	  0.077561	  0.063205	  0.152075	  0.163265	  0.150701	  0.267934	  0.155224	  0.007296	  0.026871	  0.017469	  0.178686	  0.243585	  0.400690	  0.641768	  0.671532	
1.981	  0.074008	  0.077954	  0.062363	  0.152237	  0.162492	  0.150077	  0.270625	  0.156731	  0.007154	  0.026680	  0.017346	  0.180052	  0.246639	  0.402411	  0.645365	  0.676587	
1.9815	  0.074040	  0.078340	  0.061538	  0.152379	  0.161744	  0.149437	  0.273292	  0.158227	  0.007013	  0.026483	  0.017227	  0.181411	  0.249710	  0.404129	  0.648914	  0.681577	
1.982	  0.074053	  0.078719	  0.060730	  0.152502	  0.161022	  0.148780	  0.275934	  0.159711	  0.006870	  0.026279	  0.017112	  0.182764	  0.252797	  0.405844	  0.652413	  0.686499	
